<?xml version="1.0" encoding="UTF-8"?>
<svg width="24px" height="24px" viewBox="0 0 24 24" version="1.1" xmlns="http://www.w3.org/2000/svg" xmlns:xlink="http://www.w3.org/1999/xlink">
    <title>Icons/Calendar</title>
    <g id="Icons/Calendar" stroke="none" stroke-width="1" fill="none" fill-rule="evenodd">
        <path d="M15.590287,2 C17.8190838,2 18.6272994,2.23206403 19.4421143,2.66783176 C20.2569291,3.10359949 20.8964005,3.74307093 21.3321682,4.55788574 C21.767936,5.37270056 22,6.18091615 22,8.409713 L22,15.590287 C22,17.8190838 21.767936,18.6272994 21.3321682,19.4421143 C20.8964005,20.2569291 20.2569291,20.8964005 19.4421143,21.3321682 C18.6272994,21.767936 17.8190838,22 15.590287,22 L8.409713,22 C6.18091615,22 5.37270056,21.767936 4.55788574,21.3321682 C3.74307093,20.8964005 3.10359949,20.2569291 2.66783176,19.4421143 C2.23206403,18.6272994 2,17.8190838 2,15.590287 L2,8.409713 C2,6.18091615 2.23206403,5.37270056 2.66783176,4.55788574 C3.10359949,3.74307093 3.74307093,3.10359949 4.55788574,2.66783176 C5.37270056,2.23206403 6.18091615,2 8.409713,2 L15.590287,2 Z M18.7180574,8 L5.2819426,8 C4.83618323,8 4.67454011,8.04641281 4.51157715,8.13356635 C4.34861419,8.2207199 4.2207199,8.34861419 4.13356635,8.51157715 C4.04641281,8.67454011 4,8.83618323 4,9.2819426 L4,9.2819426 L4,16.1541722 C4,17.4914503 4.13923842,17.9763797 4.40069906,18.4652686 C4.66215969,18.9541574 5.04584256,19.3378403 5.53473144,19.5993009 C6.02362033,19.8607616 6.50854969,20 7.8458278,20 L7.8458278,20 L16.1541722,20 C17.4914503,20 17.9763797,19.8607616 18.4652686,19.5993009 C18.9541574,19.3378403 19.3378403,18.9541574 19.5993009,18.4652686 C19.8607616,17.9763797 20,17.4914503 20,16.1541722 L20,16.1541722 L20,9.2819426 C20,8.83618323 19.9535872,8.67454011 19.8664336,8.51157715 C19.7792801,8.34861419 19.6513858,8.2207199 19.4884229,8.13356635 C19.3254599,8.04641281 19.1638168,8 18.7180574,8 L18.7180574,8 Z M12,15 C12.5522847,15 13,15.4477153 13,16 C13,16.5522847 12.5522847,17 12,17 C11.4477153,17 11,16.5522847 11,16 C11,15.4477153 11.4477153,15 12,15 Z M7,15 C7.55228475,15 8,15.4477153 8,16 C8,16.5522847 7.55228475,17 7,17 C6.44771525,17 6,16.5522847 6,16 C6,15.4477153 6.44771525,15 7,15 Z M17,15 C17.5522847,15 18,15.4477153 18,16 C18,16.5522847 17.5522847,17 17,17 C16.4477153,17 16,16.5522847 16,16 C16,15.4477153 16.4477153,15 17,15 Z M12,11 C12.5522847,11 13,11.4477153 13,12 C13,12.5522847 12.5522847,13 12,13 C11.4477153,13 11,12.5522847 11,12 C11,11.4477153 11.4477153,11 12,11 Z M7,11 C7.55228475,11 8,11.4477153 8,12 C8,12.5522847 7.55228475,13 7,13 C6.44771525,13 6,12.5522847 6,12 C6,11.4477153 6.44771525,11 7,11 Z M17,11 C17.5522847,11 18,11.4477153 18,12 C18,12.5522847 17.5522847,13 17,13 C16.4477153,13 16,12.5522847 16,12 C16,11.4477153 16.4477153,11 17,11 Z M16,4 L8,4 C7.44771525,4 7,4.44771525 7,5 C7,5.55228475 7.44771525,6 8,6 L8,6 L16,6 C16.5522847,6 17,5.55228475 17,5 C17,4.44771525 16.5522847,4 16,4 L16,4 Z" id="Combined-Shape" fill="#000"></path>
    </g>
</svg>
