<?xml version="1.0" encoding="UTF-8"?>
<svg width="24px" height="24px" viewBox="0 0 24 24" version="1.1" xmlns="http://www.w3.org/2000/svg" xmlns:xlink="http://www.w3.org/1999/xlink">
    <title>Icons/MapLayout/Centered</title>
    <g id="Icons/MapLayout/Centered" stroke="none" stroke-width="1" fill="none" fill-rule="evenodd">
        <path d="M6,2 C7.65685425,2 9,3.34314575 9,5 C9,5.33285018 8.9457934,5.65303974 8.8457265,5.95222238 C9.84659583,6.75422112 10.6439879,7.80044787 11.148103,9.00027892 L12.851897,9.00027892 C13.3560121,7.80044787 14.1534042,6.75422112 15.1543568,5.951315 C15.0542066,5.65303974 15,5.33285018 15,5 C15,3.34314575 16.3431458,2 18,2 L18,2 L20,2 C21.6568542,2 23,3.34314575 23,5 C23,6.65685425 21.6568542,8 20,8 L20,8 L18,8 C17.220884,8 16.5111365,7.70299842 15.9777991,7.21603703 C15.2959826,7.78981178 14.7383325,8.50709411 14.3515312,9.32127105 C15.330019,9.81611543 16,10.8298165 16,12 C16,13.1701835 15.330019,14.1838846 14.3527248,14.6784355 C14.7383325,15.4929059 15.2959826,16.2101882 15.9781505,16.7842449 C16.5111365,16.2970016 17.220884,16 18,16 L18,16 L20,16 C21.6568542,16 23,17.3431458 23,19 C23,20.6568542 21.6568542,22 20,22 L20,22 L18,22 C16.3431458,22 15,20.6568542 15,19 C15,18.6671498 15.0542066,18.3469603 15.1542735,18.0477776 C14.1536813,17.2460011 13.3564536,16.2001313 12.8523157,15.0007174 L11.1476843,15.0007174 C10.6435464,16.2001313 9.84631874,17.2460011 8.84564317,18.048685 C8.9457934,18.3469603 9,18.6671498 9,19 C9,20.6568542 7.65685425,22 6,22 L6,22 L4,22 C2.34314575,22 1,20.6568542 1,19 C1,17.3431458 2.34314575,16 4,16 L4,16 L6,16 C6.77911599,16 7.48886354,16.2970016 8.02220087,16.783963 C8.70401739,16.2101882 9.26166752,15.4929059 9.64846877,14.6787289 C8.66998098,14.1838846 8,13.1701835 8,12 C8,10.8298165 8.66998098,9.81611543 9.64727524,9.32156451 C9.26166752,8.50709411 8.70401739,7.78981178 8.02184946,7.21575512 C7.48886354,7.70299842 6.77911599,8 6,8 L6,8 L4,8 C2.34314575,8 1,6.65685425 1,5 C1,3.34314575 2.34314575,2 4,2 L4,2 Z M20,18 L18,18 C17.4477153,18 17,18.4477153 17,19 C17,19.5522847 17.4477153,20 18,20 L20,20 C20.5522847,20 21,19.5522847 21,19 C21,18.4477153 20.5522847,18 20,18 Z M6,18 L4,18 C3.44771525,18 3,18.4477153 3,19 C3,19.5522847 3.44771525,20 4,20 L6,20 C6.55228475,20 7,19.5522847 7,19 C7,18.4477153 6.55228475,18 6,18 Z M20,4 L18,4 C17.4477153,4 17,4.44771525 17,5 C17,5.55228475 17.4477153,6 18,6 L20,6 C20.5522847,6 21,5.55228475 21,5 C21,4.44771525 20.5522847,4 20,4 Z M6,4 L4,4 C3.44771525,4 3,4.44771525 3,5 C3,5.55228475 3.44771525,6 4,6 L6,6 C6.55228475,6 7,5.55228475 7,5 C7,4.44771525 6.55228475,4 6,4 Z" id="Combined-Shape" fill="#000"></path>
    </g>
</svg>
