<?xml version="1.0" encoding="UTF-8"?>
<svg width="24px" height="24px" viewBox="0 0 24 24" version="1.1" xmlns="http://www.w3.org/2000/svg" xmlns:xlink="http://www.w3.org/1999/xlink">
    <title>Icons/Edit</title>
    <g id="Icons/Edit" stroke="none" stroke-width="1" fill="none" fill-rule="evenodd">
        <path d="M12,0.431256706 C14.209139,0.431256706 16,2.22211771 16,4.43125671 L16,17.8257054 C16,18.2205554 15.8831239,18.6065708 15.6641006,18.9351058 L12.8320503,23.1831813 C12.5256978,23.64271 11.9048285,23.7668838 11.4452998,23.4605314 C11.3354475,23.3872965 11.2411846,23.2930336 11.1679497,23.1831813 L8.33589941,18.9351058 C8.11687605,18.6065708 8,18.2205554 8,17.8257054 L8,4.43125671 C8,2.22211771 9.790861,0.431256706 12,0.431256706 Z M14,7.43125671 L10,7.43125671 L10,17.9312567 L10.5,18.9312567 L13.5,18.9312567 L14,17.9312567 L14,7.43125671 Z M12,2.43125671 C10.8954305,2.43125671 10,3.32668721 10,4.43125671 L10,4.43125671 L10,5.43125671 L14,5.43125671 L14,4.43125671 C14,3.37689491 13.1841222,2.51309158 12.1492623,2.43674244 Z" id="Combined-Shape" fill="#000" transform="translate(12.000000, 12.029922) rotate(-315.000000) translate(-12.000000, -12.029922) "></path>
    </g>
</svg>
