<?xml version="1.0" encoding="UTF-8"?>
<svg width="24px" height="24px" viewBox="0 0 24 24" version="1.1" xmlns="http://www.w3.org/2000/svg" xmlns:xlink="http://www.w3.org/1999/xlink">
    <title>Icons/Category/Education</title>
    <g id="Icons/Category/Education" stroke="none" stroke-width="1" fill="none" fill-rule="evenodd">
        <path d="M12.3012091,3.20157749 C12.5055291,3.23652562 12.6809529,3.28964679 13.1640669,3.49514184 L23.4159917,7.85585074 C23.7717456,8.00717245 23.9374705,8.41823838 23.7861488,8.7739922 C23.7152786,8.94060648 23.582606,9.07327902 23.4159917,9.14414926 L21.4002889,10.0001121 C21.7818772,10.5091801 22,11.137093 22,11.7997462 L22.0010775,19.2681881 C22.5982846,19.6141507 23,20.2601625 23,21 C23,22.1045695 22.1045695,23 21,23 C19.8954305,23 19,22.1045695 19,21 C19,20.2598548 19.4020497,19.6136132 19.9996679,19.2677566 L20,11.7997462 C20,11.4045575 19.7672665,11.046436 19.4061385,10.8859346 L12.9128201,7.99936638 L11.8807498,7.5753219 C11.4065417,7.38005976 10.8687221,7.57609064 10.6259464,8.01397478 L10.5753219,8.11925019 C10.3800598,8.59345826 10.5760906,9.1312779 11.0139748,9.37405364 L11.1192502,9.4246781 L17.0318201,11.8593664 L14.3281338,13.0097163 C13.3619057,13.4207064 13.0110581,13.5269488 12.6024182,13.596845 C12.1937783,13.6667413 11.8062217,13.6667413 11.3975818,13.596845 C10.9889419,13.5269488 10.6380943,13.4207064 9.67186617,13.0097163 L0.584008254,9.14414926 C0.228254438,8.99282755 0.0625294751,8.58176162 0.213851188,8.2260078 C0.284721428,8.05939352 0.417393973,7.92672098 0.584008254,7.85585074 L10.8359331,3.49514184 C11.3190471,3.28964679 11.4944709,3.23652562 11.6987909,3.20157749 C11.9031109,3.16662935 12.0968891,3.16662935 12.3012091,3.20157749 Z M5,12.36 L9.67205702,14.348242 C10.6382784,14.7592231 10.9891223,14.8654631 11.3977578,14.9353579 C11.8063933,15.0052526 12.1939451,15.0052526 12.6025806,14.9353579 C12.9820278,14.8704556 13.3116445,14.7742148 14.1304076,14.4317428 L14.3282813,14.348242 L19,12.361 L19,17 C19,19 15.5,21 12,21 C8.5,21 5,19 5,17 L5,12.36 Z" id="Combined-Shape" fill="#000"></path>
    </g>
</svg>
