<?xml version="1.0" encoding="UTF-8"?>
<svg width="24px" height="24px" viewBox="0 0 24 24" version="1.1" xmlns="http://www.w3.org/2000/svg" xmlns:xlink="http://www.w3.org/1999/xlink">
    <title>Icons/Projects</title>
    <g id="Icons/Projects" stroke="none" stroke-width="1" fill="none" fill-rule="evenodd">
        <g id="Group" transform="translate(2.000000, 0.000000)" fill="#000">
            <path d="M10,0 C11.3137085,0 17,4.872583 17,11.5 C17,11.8093872 16.9897872,12.1105914 16.9700797,12.4037025 L18.4811043,13.6980894 C19.2669499,14.3716714 19.9190145,15.723015 19.9930088,16.7996784 L20,16.9981014 L20,21.0018986 C20,22.0649721 19.2912021,22.517443 18.3932361,22.0768751 L18.2696625,22.0112357 L13.6785672,19.3885805 C13.248503,19.7529353 12.8062557,20.0530647 12.3714706,20.2914242 L12.1800993,22.1990074 C12.0778589,23.221411 11.2175278,24 10.1900249,24 L9.80997512,24 C8.78247223,24 7.9221411,23.221411 7.81990074,22.1990074 L7.62852935,20.2914242 C7.19374425,20.0530647 6.75149701,19.7529353 6.3214328,19.3885805 L1.7303375,22.0112357 C0.774698487,22.5573152 5.6386007e-12,22.1132936 5.66080516e-12,21.0018986 L5.73940895e-12,16.9981014 C5.76116932e-12,15.8945804 0.683934733,14.4137702 1.51889575,13.6980894 L3.02985322,12.4027044 C3.01018964,12.1099076 3,11.809036 3,11.5 C3,4.872583 8.6862915,0 10,0 Z M10,16 C9.974496,16 9.94900303,16.0010604 9.92358712,16.0031784 C9.41716713,16.04538 9.04084381,16.4901258 9.08304548,16.9965458 L9.08304548,16.9965458 L9.45847726,21.5017271 C9.48194725,21.7833669 9.71738395,22 10,22 C10.282616,22 10.5180528,21.7833669 10.5415227,21.5017271 L10.5415227,21.5017271 L10.9169545,16.9965458 C10.9190725,16.9711299 10.9201329,16.9456369 10.9201329,16.9201329 C10.9201329,16.4119575 10.5081754,16 10,16 Z M16.5841238,14.7245613 C16.2526809,15.9275188 15.7455153,16.9453579 15.1450846,17.7883845 L18,19.5 L18,16.5014647 C18,16.2245134 17.8336411,15.8502769 17.6241874,15.6617686 Z M3.41587616,14.7245613 L2.37581265,15.6617686 C2.19254066,15.8267134 2.04226309,16.1338563 2.00755733,16.3936005 L2,16.5014647 L2,19.5 L4.8542101,17.7873942 C4.25408757,16.9445609 3.74718929,15.9270478 3.41587616,14.7245613 Z M10,2.5 C9.12419433,2.5 5,6.52943725 5,11.5 C5,14.4133256 6.07326009,16.3162812 7.33936317,17.3924345 L7.29851116,16.9851116 C7.14931205,15.4931205 8.23786003,14.162673 9.72985112,14.0134738 C9.81962095,14.0044969 9.90978244,14 10,14 C11.4994325,14 12.7149627,15.2155302 12.7149627,16.7149627 C12.7149627,16.8051802 12.7104658,16.8953417 12.7014888,16.9851116 L12.6606368,17.3924345 C13.9267399,16.3162812 15,14.4133256 15,11.5 C15,6.52943725 10.8758057,2.5 10,2.5 Z M10,6 C11.6568542,6 13,7.34314575 13,9 C13,10.6568542 11.6568542,12 10,12 C8.34314575,12 7,10.6568542 7,9 C7,7.34314575 8.34314575,6 10,6 Z M10,8 C9.44771525,8 9,8.44771525 9,9 C9,9.55228475 9.44771525,10 10,10 C10.5522847,10 11,9.55228475 11,9 C11,8.44771525 10.5522847,8 10,8 Z" id="Combined-Shape"></path>
        </g>
    </g>
</svg>
