<?xml version="1.0" encoding="UTF-8"?>
<svg width="24px" height="24px" viewBox="0 0 24 24" version="1.1" xmlns="http://www.w3.org/2000/svg" xmlns:xlink="http://www.w3.org/1999/xlink">
    <title>Icons/Tip</title>
    <g id="Icons/Tip" stroke="none" stroke-width="1" fill="none" fill-rule="evenodd">
        <path d="M12,5 C15.8659932,5 19,8.13400675 19,12 C19,14.3255601 17.8556974,16.4526493 16,17.7454059 L16,20 C16,21.3058822 15.1656226,22.4168852 14.0009007,22.8289758 L14,23 C14,23.5522847 13.5522847,24 13,24 L11,24 C10.4477153,24 10,23.5522847 10,23 L10.0000889,22.8293257 C8.8348501,22.4175144 8,21.3062521 8,20 L8,17.7454059 C6.14430259,16.4526493 5,14.3255601 5,12 C5,8.13400675 8.13400675,5 12,5 Z M14,19 L10,19 L10,20 C10,20.5522847 10.4477153,21 11,21 L13,21 C13.5522847,21 14,20.5522847 14,20 L14,19 Z M6.34314575,17.6568542 C6.73367004,18.0473785 6.73367004,18.6805435 6.34314575,19.0710678 L4.92893219,20.4852814 C4.5384079,20.8758057 3.90524292,20.8758057 3.51471863,20.4852814 C3.12419433,20.0947571 3.12419433,19.4615921 3.51471863,19.0710678 L4.92893219,17.6568542 C5.31945648,17.26633 5.95262146,17.26633 6.34314575,17.6568542 Z M19.0710678,17.6568542 L20.4852814,19.0710678 C20.8758057,19.4615921 20.8758057,20.0947571 20.4852814,20.4852814 C20.0947571,20.8758057 19.4615921,20.8758057 19.0710678,20.4852814 L17.6568542,19.0710678 C17.26633,18.6805435 17.26633,18.0473785 17.6568542,17.6568542 C18.0473785,17.26633 18.6805435,17.26633 19.0710678,17.6568542 Z M12,7 C9.23857625,7 7,9.23857625 7,12 C7,13.8062608 7.96498478,15.4433227 9.50072596,16.331701 L10,16.6205154 L10,18 L14,18 L14,16.6205154 L14.499274,16.331701 C16.0350152,15.4433227 17,13.8062608 17,12 C17,9.23857625 14.7614237,7 12,7 Z M3,11 C3.55228475,11 4,11.4477153 4,12 C4,12.5522847 3.55228475,13 3,13 L1,13 C0.44771525,13 6.76353751e-17,12.5522847 0,12 C-6.76353751e-17,11.4477153 0.44771525,11 1,11 L3,11 Z M23,11 C23.5522847,11 24,11.4477153 24,12 C24,12.5522847 23.5522847,13 23,13 L21,13 C20.4477153,13 20,12.5522847 20,12 C20,11.4477153 20.4477153,11 21,11 L23,11 Z M20.4852814,3.51471863 C20.8758057,3.90524292 20.8758057,4.5384079 20.4852814,4.92893219 L19.0710678,6.34314575 C18.6805435,6.73367004 18.0473785,6.73367004 17.6568542,6.34314575 C17.26633,5.95262146 17.26633,5.31945648 17.6568542,4.92893219 L19.0710678,3.51471863 C19.4615921,3.12419433 20.0947571,3.12419433 20.4852814,3.51471863 Z M4.92893219,3.51471863 L6.34314575,4.92893219 C6.73367004,5.31945648 6.73367004,5.95262146 6.34314575,6.34314575 C5.95262146,6.73367004 5.31945648,6.73367004 4.92893219,6.34314575 L3.51471863,4.92893219 C3.12419433,4.5384079 3.12419433,3.90524292 3.51471863,3.51471863 C3.90524292,3.12419433 4.5384079,3.12419433 4.92893219,3.51471863 Z M12,-1.66977543e-13 C12.5522847,-1.66977543e-13 13,0.44771525 13,1 L13,3 C13,3.55228475 12.5522847,4 12,4 C11.4477153,4 11,3.55228475 11,3 L11,1 C11,0.44771525 11.4477153,-1.66977543e-13 12,-1.66977543e-13 Z" id="Combined-Shape" fill="#000"></path>
    </g>
</svg>
